<?xml version="1.0" encoding="UTF-8" standalone="no"?>
<!DOCTYPE svg PUBLIC "-//W3C//DTD SVG 1.1//EN" "http://www.w3.org/Graphics/SVG/1.1/DTD/svg11.dtd">
<svg width="100%" height="100%" viewBox="0 0 167 167" version="1.1" xmlns="http://www.w3.org/2000/svg" xmlns:xlink="http://www.w3.org/1999/xlink" xml:space="preserve" style="fill-rule:evenodd;clip-rule:evenodd;stroke-linejoin:round;stroke-miterlimit:1.41421;">
    <g>
        <g transform="matrix(2.31817,0,0,2.31817,36.329,37.9452)">
            <path d="M20,2C29.925,2 38,10.075 38,20C38,29.925 29.925,38 20,38C10.075,38 2,29.925 2,20C2,10.075 10.075,2 20,2M20,0C8.955,0 0,8.954 0,20C0,31.047 8.955,40 20,40C31.047,40 40,31.047 40,20C40,8.954 31.047,0 20,0Z" style="fill:rgb(46,165,90);fill-rule:nonzero;stroke:rgb(46,165,90);stroke-width:1.73px;"/>
        </g>
        <g transform="matrix(2.76384,0,0,2.76384,25.9001,31.6064)">
            <path d="M19.742,10.097L19.742,20.484L26.516,27.258" style="fill:none;stroke:rgb(46,165,90);stroke-width:2.89px;stroke-linecap:round;stroke-miterlimit:1.5;"/>
        </g>
    </g>
</svg>
