<?xml version="1.0" encoding="UTF-8" standalone="no"?>
<!DOCTYPE svg PUBLIC "-//W3C//DTD SVG 1.1//EN" "http://www.w3.org/Graphics/SVG/1.1/DTD/svg11.dtd">
<svg width="100%" height="100%" viewBox="0 0 167 167" version="1.1" xmlns="http://www.w3.org/2000/svg" xmlns:xlink="http://www.w3.org/1999/xlink" xml:space="preserve" style="fill-rule:evenodd;clip-rule:evenodd;stroke-linejoin:round;stroke-miterlimit:1.41421;">
    <g transform="matrix(1.2596,0,0,1.2596,-21.5933,-21.8987)">
        <g>
            <g>
                <path id="path2451" d="M122.511,114.281L43.121,114.281L43.121,53.877L122.511,53.877L122.511,114.281ZM50.599,61.354L50.599,106.804L115.033,106.804L115.033,61.354L50.599,61.354L50.599,61.354Z" style="fill:rgb(46,165,90);"/>
                <path id="path2455" d="M81.2,87.086L81.222,87.109L81.256,87.141L81.291,87.172L81.309,87.188L81.327,87.203L81.384,87.248L81.424,87.278L81.445,87.292L81.466,87.307L81.487,87.321L81.553,87.363L81.576,87.376L81.599,87.39L81.647,87.416L81.672,87.429L81.722,87.454L81.747,87.466L81.773,87.478L81.8,87.49L81.826,87.502L81.854,87.513L81.881,87.524L81.937,87.546L82.024,87.576L82.053,87.585L82.083,87.595L82.113,87.604L82.144,87.612L82.174,87.621L82.205,87.629L82.237,87.636L82.268,87.644L82.332,87.658L82.364,87.664L82.43,87.676L82.462,87.681L82.495,87.686L82.529,87.691L82.595,87.699L82.629,87.702L82.663,87.706L82.697,87.708L82.731,87.711L82.799,87.715L82.867,87.717L82.901,87.717L82.936,87.718L82.97,87.717L83.004,87.717L83.038,87.716L83.072,87.715L83.106,87.713L83.14,87.711L83.174,87.708L83.208,87.705L83.242,87.702L83.275,87.699L83.309,87.695L83.342,87.69L83.375,87.686L83.408,87.681L83.441,87.675L83.473,87.67L83.506,87.664L83.538,87.657L83.57,87.651L83.601,87.643L83.633,87.636L83.664,87.628L83.695,87.62L83.725,87.612L83.755,87.604L83.785,87.595L83.815,87.585L83.844,87.576L83.873,87.566L83.901,87.556L83.93,87.546L83.957,87.536L83.985,87.525L84.012,87.514L84.039,87.503L84.065,87.492L84.091,87.48L84.116,87.468L84.141,87.456L84.166,87.444L84.19,87.432L84.214,87.419L84.237,87.407L84.26,87.394L84.283,87.381L84.305,87.368L84.326,87.354L84.348,87.341L84.369,87.328L84.389,87.314L84.409,87.3L84.429,87.286L84.448,87.273L84.466,87.259L84.485,87.245L84.503,87.23L84.52,87.216L84.537,87.202L84.554,87.187L84.57,87.173L84.586,87.158L84.602,87.144L84.617,87.129L84.643,87.103L115.636,55.907L120.941,61.178L89.93,92.391L89.85,92.471L89.757,92.56L89.664,92.648L89.57,92.734L89.475,92.818L89.378,92.901L89.281,92.982L89.183,93.062L89.084,93.14L88.985,93.217L88.884,93.292L88.783,93.366L88.681,93.438L88.578,93.508L88.475,93.577L88.371,93.644L88.266,93.71L88.161,93.774L88.055,93.837L87.949,93.899L87.842,93.958L87.734,94.017L87.626,94.073L87.518,94.129L87.409,94.182L87.299,94.235L87.189,94.286L87.079,94.335L86.968,94.383L86.857,94.429L86.746,94.475L86.634,94.518L86.522,94.56L86.409,94.601L86.296,94.641L86.183,94.679L86.07,94.715L85.956,94.75L85.842,94.784L85.728,94.817L85.614,94.848L85.499,94.878L85.384,94.906L85.269,94.933L85.154,94.959L85.038,94.983L84.923,95.006L84.807,95.028L84.691,95.048L84.575,95.067L84.459,95.085L84.342,95.101L84.226,95.116L84.109,95.13L83.992,95.142L83.876,95.153L83.759,95.163L83.642,95.172L83.525,95.179L83.408,95.185L83.291,95.189L83.174,95.193L83.057,95.195L82.939,95.195L82.822,95.195L82.705,95.193L82.588,95.19L82.471,95.185L82.353,95.179L82.236,95.172L82.119,95.164L82.002,95.154L81.885,95.143L81.768,95.131L81.651,95.117L81.534,95.102L81.418,95.086L81.301,95.068L81.185,95.049L81.068,95.029L80.952,95.007L80.836,94.984L80.72,94.96L80.604,94.934L80.489,94.907L80.373,94.879L80.258,94.849L80.143,94.817L80.028,94.785L79.913,94.751L79.799,94.715L79.685,94.679L79.571,94.64L79.458,94.601L79.345,94.56L79.232,94.517L79.119,94.473L79.007,94.428L78.895,94.381L78.783,94.333L78.672,94.283L78.561,94.231L78.451,94.179L78.341,94.124L78.232,94.069L78.123,94.011L78.015,93.953L77.907,93.892L77.8,93.83L77.693,93.767L77.587,93.702L77.481,93.636L77.376,93.567L77.272,93.498L77.168,93.427L77.066,93.354L76.964,93.28L76.862,93.204L76.762,93.127L76.662,93.048L76.563,92.967L76.465,92.885L76.368,92.801L76.272,92.716L76.177,92.629L76.083,92.541L75.99,92.451L75.903,92.365L44.868,60.917L50.19,55.664L81.2,87.086Z" style="fill:rgb(46,165,90);"/>
                <path id="path2457" d="M75.037,87.115L51.268,111.415L45.922,106.186L69.692,81.886L75.037,87.115Z" style="fill:rgb(46,165,90);"/>
                <path id="path2459" d="M119.441,105.908L114.091,111.133L90.961,87.45L96.311,82.225L119.441,105.908Z" style="fill:rgb(46,165,90);"/>
            </g>
        </g>
    </g>
</svg>
