<?xml version="1.0" encoding="UTF-8" standalone="no"?><!DOCTYPE svg PUBLIC "-//W3C//DTD SVG 1.1//EN" "http://www.w3.org/Graphics/SVG/1.1/DTD/svg11.dtd"><svg width="100%" height="100%" viewBox="0 0 167 167" version="1.1" xmlns="http://www.w3.org/2000/svg" xmlns:xlink="http://www.w3.org/1999/xlink" xml:space="preserve" style="fill-rule:evenodd;clip-rule:evenodd;stroke-linejoin:round;stroke-miterlimit:1.41421;"><g><path d="M60.246,43.538c4.82,-0.908 7.979,4.511 10.383,8.25c2.34,3.632 5.219,7.892 4.057,12.619c-0.647,2.652 -3.051,4.097 -4.868,5.662c-1.793,1.545 -4.524,2.962 -5.187,5.335c-1.083,3.851 1.286,7.892 2.751,10.194c3.331,5.2 7.356,9.887 12.496,14.072c2.488,2.03 5.942,4.742 9.405,4.045c5.171,-1.043 6.537,-7.402 12.168,-8.25c5.359,-0.808 8.985,3.066 12.012,5.662c2.916,2.513 7.62,5.73 7.3,10.034c-0.187,2.473 -2.176,4.006 -3.901,5.499c-1.753,1.525 -3.291,3.237 -5.024,4.364c-4.197,2.732 -9.345,4.07 -15.255,3.886c-5.795,-0.179 -10.411,-2.142 -14.601,-4.368c-8.19,-4.356 -14.664,-10.484 -20.762,-17.313c-5.998,-6.713 -11.537,-14.661 -14.6,-23.449c-3.822,-10.973 -1.801,-22.246 4.385,-29.278c1.046,-1.194 2.699,-2.441 4.213,-3.723c1.51,-1.286 2.907,-2.843 5.028,-3.241Z" style="fill:#2ea55a;"/></g></svg>