<?xml version="1.0" encoding="UTF-8" standalone="no"?>
<!DOCTYPE svg PUBLIC "-//W3C//DTD SVG 1.1//EN" "http://www.w3.org/Graphics/SVG/1.1/DTD/svg11.dtd">
<svg width="100%" height="100%" viewBox="0 0 167 167" version="1.1" xmlns="http://www.w3.org/2000/svg" xmlns:xlink="http://www.w3.org/1999/xlink" xml:space="preserve" style="fill-rule:evenodd;clip-rule:evenodd;stroke-linejoin:round;stroke-miterlimit:1.41421;">
    <g transform="matrix(4.90818,0,0,4.90818,-14.9416,-16.2549)">
        <g>
            <path id="Oval.-208" d="M13.601,18.109C13.584,17.902 13.575,17.693 13.575,17.482C13.575,13.671 16.384,10.582 19.848,10.582C23.312,10.582 26.121,13.671 26.121,17.482C26.121,17.693 26.112,17.902 26.095,18.109L26.121,18.109C26.121,21.88 19.848,30.654 19.848,30.654C19.848,30.654 13.575,21.901 13.575,18.109L13.601,18.109ZM19.848,19.364C21.234,19.364 22.357,18.24 22.357,16.855C22.357,15.469 21.234,14.345 19.848,14.345C18.462,14.345 17.339,15.469 17.339,16.855C17.339,18.24 18.462,19.364 19.848,19.364Z" style="fill:rgb(46,165,90);"/>
        </g>
    </g>
</svg>
