<?xml version="1.0" encoding="utf-8"?>
<!-- Generator: Adobe Illustrator 21.1.0, SVG Export Plug-In . SVG Version: 6.00 Build 0)  -->
<svg version="1.1" id="Слой_1" xmlns="http://www.w3.org/2000/svg" xmlns:xlink="http://www.w3.org/1999/xlink" x="0px" y="0px"
	 viewBox="0 0 198.4 198.4" style="enable-background:new 0 0 198.4 198.4;" xml:space="preserve">
<style type="text/css">
	.st0{fill:#57AA4E;}
	.st1{fill:#E2E2E2;}
</style>
<circle class="st0" cx="96.1" cy="99.7" r="76.9"/>
<path class="st1" d="M77.8,66.5C67.4,66.5,59,74.9,59,85.2c0,10.3,8.4,18.7,18.7,18.7c10.3,0,18.7-8.4,18.7-18.7
	C96.5,74.9,88.1,66.5,77.8,66.5z M77.8,101.1c-8.7,0-15.8-7.1-15.8-15.9c0-8.7,7.1-15.9,15.8-15.9c8.7,0,15.9,7.1,15.9,15.9
	C93.6,94,86.5,101.1,77.8,101.1z"/>
<path class="st1" d="M85.4,77l-7.6,7.6L70.1,77c-0.6-0.6-1.5-0.6-2,0c-0.6,0.6-0.6,1.5,0,2l8.6,8.7c0.3,0.3,0.7,0.4,1,0.4
	c0.4,0,0.7-0.1,1-0.4c0,0,0,0,0,0l8.7-8.7c0.6-0.6,0.6-1.5,0-2C86.9,76.4,86,76.4,85.4,77z"/>
<path class="st1" d="M100,13.8c-47.9,0-86.7,38.8-86.7,86.7c0,47.9,38.8,86.7,86.7,86.7c47.9,0,86.7-38.8,86.7-86.7
	C186.7,52.6,147.9,13.8,100,13.8z M30.9,60.3h117.2v9.1h-22.7v45H30.9V60.3z M32.9,126.4h-1.9v-10.1h10.2c-4.3,1.5-7.5,5.2-8.3,9.9
	C32.9,126.3,32.9,126.3,32.9,126.4z M45.7,140.6c-6.7,0-12.1-5.4-12.1-12.1c0-0.7,0.1-1.4,0.2-2.1c1-5.7,5.9-10.1,11.9-10.1h0.1
	c6,0,10.9,4.4,11.9,10.1c0.1,0.7,0.2,1.4,0.2,2.1C57.8,135.1,52.4,140.6,45.7,140.6z M141.5,140.6c-6.7,0-12.1-5.4-12.1-12.1
	c0-6.7,5.4-12.1,12.1-12.1c6.7,0,12.1,5.4,12.1,12.1C153.6,135.1,148.2,140.6,141.5,140.6z M166.6,120.1c0.9,0,1.7,0.1,2.5,0.2
	c0,1.9-0.1,3.9-0.1,5.8c-4.6,0-9.2,0-13.9-0.1c-1.5-6.7-8-12.1-15-11.1c-6.4,0.4-10.8,5.8-12.6,11.4H58.4c0,0,0-0.1,0-0.1
	c-0.8-4.7-4.1-8.4-8.3-9.9h77.5c-0.1-11.8,0-23.7,0-35.5l0,0v-8.9l0,0c0,0,0,0,0,0c0,0,0,0,0.1,0c7.2-0.1,14.4-0.1,21.6,0
	c-0.2,2.7,0.2,5.3,0.8,7.9c1,4.1,2.6,8,3.6,12.1c1,2.4,0.9,5.8,3.4,7.2c0.1,0.1,0.3,0.2,0.5,0.2c1.2,0.6,2.5,1.2,3.7,1.8
	c1.8,0.8,3.6,1.6,5.3,2.5C166.7,109.1,166.6,114.5,166.6,120.1z"/>
<path class="st1" d="M141.5,124.8c-1.8,0-3.3,1.3-3.6,3c0,0.2-0.1,0.4-0.1,0.7c0,1.1,0.5,2,1.2,2.7c0.6,0.6,1.5,1,2.4,1
	c0.9,0,1.8-0.4,2.4-1c0.7-0.7,1.2-1.6,1.2-2.7c0-0.2,0-0.4-0.1-0.7C144.7,126.1,143.3,124.8,141.5,124.8z"/>
<path class="st1" d="M156.6,120.5c3.1,0.1,6.3,0.1,9.5-0.1c0.1-1.8,0.1-3.7-0.1-5.6c-3.1-0.1-6.3-0.1-9.4,0
	C156.5,116.8,156.5,118.6,156.6,120.5z"/>
<path class="st1" d="M137.1,82.2c-0.2,5.4-0.1,10.8-0.1,16.2c5.2,0,10.3,0.1,15.5-0.1c-1.4-5.4-3.2-10.7-4.6-16
	C144.4,82.1,140.7,82.2,137.1,82.2z"/>
<path class="st0" d="M100,198.4c-53.8,0-97.5-43.7-97.5-97.5C2.5,47.2,46.2,3.4,100,3.4c53.8,0,97.5,43.7,97.5,97.5
	C197.5,154.7,153.8,198.4,100,198.4z M100,5.3c-52.8,0-95.7,42.9-95.7,95.7c0,52.8,42.9,95.7,95.7,95.7c52.8,0,95.7-42.9,95.7-95.7
	C195.7,48.2,152.8,5.3,100,5.3z"/>
</svg>
