<?xml version="1.0" encoding="utf-8"?>
<!-- Generator: Adobe Illustrator 21.1.0, SVG Export Plug-In . SVG Version: 6.00 Build 0)  -->
<svg version="1.1" id="Слой_1" xmlns="http://www.w3.org/2000/svg" xmlns:xlink="http://www.w3.org/1999/xlink" x="0px" y="0px"
	 viewBox="0 0 198.4 198.4" style="enable-background:new 0 0 198.4 198.4;" xml:space="preserve">
<style type="text/css">
	.st0{fill:#57AA4E;}
	.st1{fill:#E2E2E2;}
</style>
<circle class="st0" cx="101.7" cy="100.1" r="71.9"/>
<g>
	<path class="st1" d="M120.1,93.4c-9.8,0-16,7.7-16,17.9c0.1,10.7,7,17.2,15.6,17.2c8.3,0,15.8-6.2,15.8-18.2
		C135.5,100.6,130,93.4,120.1,93.4z M119.9,121.3c-3.9,0-5.9-4.3-5.8-10.3c0-5.7,1.8-10.3,5.8-10.3c4.1,0,5.6,4.5,5.6,10.3
		C125.6,117.4,123.7,121.3,119.9,121.3z"/>
	<path class="st1" d="M94.3,86.6c0-9.8-5.5-17-15.4-17c-9.8,0-16,7.7-16,17.9c0,10.7,6.9,17.2,15.6,17.2
		C86.8,104.8,94.3,98.6,94.3,86.6z M78.8,97.5c-3.9,0-5.9-4.3-5.9-10.3c0-5.7,1.8-10.3,5.8-10.3c4.1,0,5.7,4.5,5.7,10.3
		C84.4,93.7,82.5,97.5,78.8,97.5z"/>
	<path class="st1" d="M99.2,12.9c-47.7,0-86.3,38.6-86.3,86.3s38.6,86.3,86.3,86.3c47.7,0,86.3-38.6,86.3-86.3S146.9,12.9,99.2,12.9
		z M161.4,108.5l-10.1,9.7l1.1,13.9c0.2,1.9-1,3.6-2.9,4.2l-13.4,3.9l-5.5,12.9c-0.7,1.8-2.6,2.7-4.5,2.4l-13.7-2.8l-10.8,8.8
		c-0.7,0.6-1.6,0.9-2.5,0.9c-0.9,0-1.8-0.3-2.5-0.9l-10.8-8.8l-13.7,2.8c-1.9,0.4-3.7-0.6-4.5-2.4l-5.5-12.9l-13.4-3.9
		c-1.8-0.5-3-2.3-2.9-4.2l1.1-13.9L37,108.5c-1.4-1.3-1.6-3.4-0.6-5l7.5-11.8l-4.4-13.2c-0.6-1.8,0.1-3.8,1.8-4.7l12.1-7l2.2-13.8
		c0.3-1.9,1.9-3.3,3.8-3.4l14-0.5l8.4-11.2c1.1-1.5,3.2-2,4.9-1.2l12.6,6l12.6-6c1.7-0.8,3.8-0.3,4.9,1.2l8.4,11.2l14,0.5
		c1.9,0.1,3.5,1.5,3.8,3.4l2.2,13.8l12.1,7c1.6,1,2.4,2.9,1.8,4.7l-4.4,13.2l7.5,11.8C163,105,162.8,107.1,161.4,108.5z"/>
	<polygon class="st1" points="112,69.7 79.2,128.8 86.3,128.8 119.2,69.7 	"/>
</g>
<path class="st0" d="M99.2,196.9c-53.9,0-97.7-43.8-97.7-97.7c0-53.9,43.8-97.7,97.7-97.7c53.9,0,97.7,43.8,97.7,97.7
	C196.9,153.1,153.1,196.9,99.2,196.9z M99.2,3.4c-52.8,0-95.8,43-95.8,95.8c0,52.8,43,95.8,95.8,95.8c52.8,0,95.8-43,95.8-95.8
	C195,46.4,152.1,3.4,99.2,3.4z"/>
</svg>
