<?xml version="1.0" encoding="utf-8"?>
<!-- Generator: Adobe Illustrator 21.1.0, SVG Export Plug-In . SVG Version: 6.00 Build 0)  -->
<svg version="1.1" id="Слой_1" xmlns="http://www.w3.org/2000/svg" xmlns:xlink="http://www.w3.org/1999/xlink" x="0px" y="0px"
	 viewBox="0 0 198.4 198.4" style="enable-background:new 0 0 198.4 198.4;" xml:space="preserve">
<style type="text/css">
	.st0{fill:#57AA4E;}
	.st1{fill:#E2E2E2;}
</style>
<circle class="st0" cx="98.4" cy="99.8" r="84.7"/>
<path class="st1" d="M92.5,26.1c-5.4-0.1-10.1,1.5-14,4.6C64.6,42.1,65,70.4,65,70.7c0,0,0,0.1,0,0.1c17.2,0.1,50.8,0.2,68.1,0.3
	C132.4,68.7,120.2,26.7,92.5,26.1z"/>
<path class="st1" d="M99.2,11.1c-48.5,0-87.8,39.3-87.8,87.8c0,48.5,39.3,87.8,87.8,87.8s87.8-39.3,87.8-87.8
	C187.1,50.4,147.7,11.1,99.2,11.1z M148.8,159.7c-3.8,0-100.9,0-100.9,0s-1.9,0.4-1.9-3.5c0-3.9,3.1-51.1,3.1-51.1l2.4-32
	c0.1-0.8,0.6-2,2.2-2.2c0.2,0,0.4,0,0.7,0c0.7,0,3.7,0,8.1,0c0,0,0,0,0-0.1c0-1.2-0.4-29.5,14.3-41.5c4.4-3.6,9.8-5.4,15.9-5.3
	c30.4,0.6,42.5,44.9,43,46.8c0,0.1,0,0.2,0,0.4c5.1,0,8.3,0,8.3,0s2.9-0.4,3.1,3c0.2,3.3,5.5,83,5.5,83S152.7,159.7,148.8,159.7z"/>
<path class="st0" d="M99.2,198.5C44.5,198.5,0,154,0,99.3C0,44.6,44.5,0,99.2,0s99.2,44.5,99.2,99.2
	C198.4,154,153.9,198.5,99.2,198.5z M99.2,1.9C45.5,1.9,1.9,45.6,1.9,99.3c0,53.7,43.7,97.3,97.3,97.3s97.3-43.7,97.3-97.3
	C196.6,45.6,152.9,1.9,99.2,1.9z"/>
<ellipse class="st1" cx="68.4" cy="88.5" rx="4.1" ry="3.4"/>
<ellipse class="st1" cx="124.3" cy="88.4" rx="4.1" ry="3.4"/>
</svg>
