<?xml version="1.0" encoding="utf-8"?>
<!-- Generator: Adobe Illustrator 21.1.0, SVG Export Plug-In . SVG Version: 6.00 Build 0)  -->
<svg version="1.1" id="Слой_1" xmlns="http://www.w3.org/2000/svg" xmlns:xlink="http://www.w3.org/1999/xlink" x="0px" y="0px"
	 viewBox="0 0 198.4 198.4" style="enable-background:new 0 0 198.4 198.4;" xml:space="preserve">
<style type="text/css">
	.st0{fill:#E2E2E2;}
	.st1{fill:#57AA4E;}
</style>
<circle class="st0" cx="99.2" cy="98" r="87.7"/>
<circle class="st1" cx="70.5" cy="74.1" r="10.4"/>
<circle class="st1" cx="124.3" cy="74.1" r="10.4"/>
<path class="st1" d="M99.2,196.1c-53.6,0-97.3-43.6-97.3-97.3c0-53.6,43.6-97.3,97.3-97.3s97.3,43.6,97.3,97.3
	C196.5,152.5,152.9,196.1,99.2,196.1z M99.2,3.4C46.6,3.4,3.8,46.2,3.8,98.9c0,52.6,42.8,95.4,95.4,95.4s95.4-42.8,95.4-95.4
	C194.7,46.2,151.8,3.4,99.2,3.4z"/>
<path class="st1" d="M65.3,121.4c0,0,11.5,26.7,34.9,26.7c23,0,33-26.7,33-26.7"/>
</svg>
