<?xml version="1.0" encoding="UTF-8" standalone="no"?>
<!DOCTYPE svg PUBLIC "-//W3C//DTD SVG 1.1//EN" "http://www.w3.org/Graphics/SVG/1.1/DTD/svg11.dtd">
<svg width="100%" height="100%" viewBox="0 0 40 40" version="1.1" xmlns="http://www.w3.org/2000/svg" xmlns:xlink="http://www.w3.org/1999/xlink" xml:space="preserve" style="fill-rule:evenodd;clip-rule:evenodd;stroke-linejoin:round;stroke-miterlimit:1.41421;">
    <g>
        <path d="M20,2C29.925,2 38,10.075 38,20C38,29.925 29.925,38 20,38C10.075,38 2,29.925 2,20C2,10.075 10.075,2 20,2M20,0C8.955,0 0,8.954 0,20C0,31.047 8.955,40 20,40C31.047,40 40,31.047 40,20C40,8.954 31.047,0 20,0Z" style="fill:rgb(46,165,90);fill-rule:nonzero;"/>
        <path d="M14.371,9.793C15.578,9.565 16.369,10.926 16.971,11.865C17.557,12.777 18.278,13.847 17.987,15.034C17.825,15.7 17.223,16.063 16.768,16.456C16.319,16.844 15.635,17.2 15.469,17.796C15.198,18.763 15.791,19.778 16.158,20.356C16.992,21.662 18,22.839 19.287,23.89C19.91,24.4 20.775,25.081 21.642,24.906C22.937,24.644 23.279,23.047 24.689,22.834C26.031,22.631 26.939,23.604 27.697,24.256C28.427,24.887 29.605,25.695 29.525,26.776C29.478,27.397 28.98,27.782 28.548,28.157C28.109,28.54 27.724,28.97 27.29,29.253C26.239,29.939 24.95,30.275 23.47,30.229C22.019,30.184 20.863,29.691 19.814,29.132C17.763,28.038 16.142,26.499 14.615,24.784C13.113,23.098 11.726,21.102 10.959,18.895C10.002,16.139 10.508,13.308 12.057,11.542C12.319,11.242 12.733,10.929 13.112,10.607C13.49,10.284 13.84,9.893 14.371,9.793Z" style="fill:rgb(46,165,90);"/>
    </g>
</svg>
