<?xml version="1.0" encoding="UTF-8" standalone="no"?><!DOCTYPE svg PUBLIC "-//W3C//DTD SVG 1.1//EN" "http://www.w3.org/Graphics/SVG/1.1/DTD/svg11.dtd"><svg width="100%" height="100%" viewBox="0 0 167 167" version="1.1" xmlns="http://www.w3.org/2000/svg" xmlns:xlink="http://www.w3.org/1999/xlink" xml:space="preserve" style="fill-rule:evenodd;clip-rule:evenodd;"><g><path d="M83.333,8.333c41.355,0 75,33.646 75,75c0,41.355 -33.645,75 -75,75c-41.354,0 -75,-33.645 -75,-75c0,-41.354 33.646,-75 75,-75m0,-8.333c-46.021,0 -83.333,37.308 -83.333,83.333c0,46.03 37.313,83.334 83.333,83.334c46.03,0 83.334,-37.304 83.334,-83.334c0,-46.025 -37.304,-83.333 -83.334,-83.333Z" style="fill:#2ea55a;fill-rule:nonzero;"/><g><rect id="path2451" x="49.157" y="59.306" width="67.318" height="49.546" style="fill:none;stroke:#2ea55a;stroke-width:5.05px;"/><path id="path2455" d="M49.783,59.938l29.041,29.427c2.153,2.17 6.07,2.144 8.177,0.02l29.021,-29.211" style="fill:none;stroke:#2ea55a;stroke-width:5.05px;"/><path id="path2457" d="M50.781,107.221l22.251,-22.747" style="fill:none;stroke:#2ea55a;stroke-width:5.05px;"/><path id="path2459" d="M114.597,106.959l-21.652,-22.17" style="fill:none;stroke:#2ea55a;stroke-width:5.05px;"/></g></g></svg>